<svg width="16" height="16" fill="none" xmlns="http://www.w3.org/2000/svg"><path d="M14.99 14.02l-4.566-4.565a5.226 5.226 0 001.092-3.213 5.24 5.24 0 00-1.545-3.728A5.235 5.235 0 006.242.969a5.24 5.24 0 00-3.728 1.545A5.232 5.232 0 00.969 6.242c0 1.408.55 2.734 1.545 3.729a5.231 5.231 0 003.728 1.545 5.23 5.23 0 003.212-1.09l4.565 4.563a.142.142 0 00.102.042.143.143 0 00.102-.042l.766-.765a.143.143 0 00.031-.157.143.143 0 00-.03-.046zM9.026 9.027a3.916 3.916 0 01-2.785 1.153 3.917 3.917 0 01-2.784-1.153 3.916 3.916 0 01-1.153-2.785c0-1.051.41-2.04 1.153-2.784a3.916 3.916 0 012.784-1.153c1.051 0 2.041.407 2.785 1.153a3.916 3.916 0 011.153 2.784c0 1.051-.41 2.041-1.153 2.785z"/></svg>