<svg width="39" height="48" fill="none" xmlns="http://www.w3.org/2000/svg"><path d="M2 2h35v44H2V2z" stroke="#000" stroke-width="4"/><path d="M23.254 38v-1.234C26.308 36.502 28 34.916 28 32.33c0-2.203-1.232-3.564-3.651-4.064l-1.095-.215v-3.046c.791.137 1.37.813 1.398 1.587h3.09c-.027-2.331-1.756-3.976-4.488-4.25V21H21.93v1.332c-2.971.235-4.682 1.821-4.682 4.357 0 2.145 1.233 3.555 3.587 4.104l1.095.254V34.2c-.984-.107-1.692-.783-1.738-1.645H17c.01 2.507 1.821 4.064 4.93 4.23V38h1.324zm1.6-5.268c0 .832-.597 1.39-1.6 1.468v-2.918c1.076.216 1.6.695 1.6 1.45zm-4.377-6.375c0-.755.597-1.313 1.453-1.371v2.78c-.948-.205-1.453-.695-1.453-1.41z" fill="#FD665E"/></svg>