<svg width="62" height="28" fill="none" xmlns="http://www.w3.org/2000/svg"><path d="M14 12.68L9.686.525H7.279l-4.23 11.784c-.721 2.038-1.06 2.409-2.131 2.604v.505h4.127v-.505c-1.41-.216-1.616-.669-1.008-2.562l.668-2.028h4.611l.762 2.264c.556 1.688.299 2.13-1.009 2.326v.505h6.917v-.505c-1.04-.195-1.4-.586-1.987-2.233zM4.931 9.603L6.98 3.324l2.1 6.279H4.932z" fill="#FD665E"/><path d="M20 5.053l-4.549.556v.474l.525.164c.566.196.659.34.659 1.009v6.546c0 .72-.165.947-1.184 1.111v.505h5.887v-.505c-1.132-.185-1.317-.401-1.317-1.214V8.306c.453-.422 1.492-.69 2.511-.69.587 0 1.184.093 1.483.206.123-.247.236-.68.236-1.122 0-.926-.442-1.667-1.369-1.667-1.04 0-1.904.875-2.892 2.923L20 5.053zm9.563 10.571c1.852 0 3.396-.71 4.158-1.802v-.504c-.515.504-1.41.844-2.408.844-2.049 0-3.706-1.616-3.706-4.446 0-2.357 1.235-3.86 3.098-3.86.556 0 1.05.134 1.441.381-.02-.01-.03-.01-.051-.01-.793 0-1.441.658-1.441 1.492s.669 1.493 1.513 1.493c.823 0 1.513-.649 1.513-1.555 0-1.482-1.41-2.665-3.89-2.665-3.274 0-5.682 2.182-5.682 5.331 0 3.263 2.419 5.3 5.455 5.3zM38.446 0l-4.57.556v.473l.525.175c.576.196.659.34.659 1.009V13.78c0 .741-.186.957-1.184 1.132v.505h5.599v-.505c-.895-.164-1.03-.35-1.03-1.07V7.369c.31-.576.958-.967 1.802-.967 1.163 0 1.842.69 1.842 2.068v5.373c0 .72-.154.916-1.029 1.07v.505h5.599v-.505c-1.019-.175-1.194-.39-1.194-1.132V8.275c0-2.223-1.41-3.283-3.5-3.283-1.739 0-3.005.792-3.54 1.955L38.445 0zM15.18 17.43l-4.55.556v.473l.526.165c.576.195.658.34.658 1.008v6.526c0 .74-.185.957-1.183 1.132v.504h5.599v-.504c-.896-.154-1.03-.35-1.03-1.07v-6.474c.31-.566.896-.968 1.73-.968 1.08 0 1.698.68 1.698 2.048v5.393c0 .72-.124.916-1.02 1.07v.505h5.435v-.504c-.895-.154-1.03-.35-1.03-1.07v-5.744c0-.288-.02-.535-.071-.782.319-.556.936-.916 1.77-.916 1.091 0 1.73.68 1.73 2.048v5.393c0 .72-.135.906-1.03 1.07v.505h5.599v-.504c-1.009-.175-1.184-.391-1.184-1.132V20.63c0-2.172-1.348-3.263-3.396-3.263-1.719 0-3.047.824-3.55 1.987-.371-1.287-1.586-1.987-3.202-1.987-1.75 0-3.005.824-3.5 1.976V17.43zM36.002 28c3.314 0 5.794-2.203 5.794-5.362 0-3.222-2.46-5.27-5.753-5.27-3.304 0-5.784 2.192-5.784 5.352 0 3.232 2.46 5.28 5.743 5.28zm.072-.68c-1.38 0-2.233-1.77-2.233-4.713 0-2.84.74-4.56 2.14-4.56 1.37 0 2.223 1.76 2.223 4.704 0 2.84-.74 4.57-2.13 4.57zm6.68-7.554l3.088 8.049h1.853l2.943-7.627c.638-1.657.927-1.945 1.75-2.11v-.514H48.95v.514c1.163.165 1.297.494.813 2.028l-1.626 4.878-1.626-4.899c-.474-1.513-.34-1.852.854-2.007v-.514H41.18v.514c.813.175 1.09.463 1.574 1.688zm8.832 2.934c0 3.272 2.419 5.3 5.486 5.3 1.914 0 3.478-.69 4.23-1.822l-.01-.504c-.515.525-1.38.906-2.388.906-2.08 0-3.613-1.513-3.88-4.19h6.411c.021-.174.052-.442.052-.71 0-2.552-1.709-4.312-4.56-4.312-3.21 0-5.341 2.203-5.341 5.332zm3.386-1.194c0-2.213.71-3.459 1.956-3.459 1.09 0 1.585 1.174 1.585 3.006 0 .298 0 .514-.01.71l-3.52.041c-.011-.103-.011-.195-.011-.298z" fill="#FD665E"/></svg>